<svg xmlns="http://www.w3.org/2000/svg" width="1240" height="1240"><path d="M0 620.001v620.001l620.25-.251 620.25-.251.251-619.75.251-619.75H0v620.001m.497.499c0 341 .114 480.649.253 310.332s.139-449.317 0-620S.497 279.5.497 620.5M189 184.267c0 2.962 1.759 4.733 4.7 4.733 1.265 0 2.3.45 2.3 1 0 .576 3.114 1 7.341 1 4.038 0 9.55.67 12.25 1.489 3.091.938 9.096 1.493 16.216 1.5 6.219.006 13.194.463 15.5 1.015 2.306.551 18.818 1.225 36.693 1.496 53.087.806 65.653 1.377 67.038 3.046.664.8 2.089 1.454 3.168 1.454 1.122 0 1.784.535 1.549 1.25-.743 2.253-9.295 2.871-78.255 5.65-11.55.465-23.025 1.334-25.5 1.93-2.475.595-10.257 1.102-17.294 1.126-12.262.042-12.906.149-15.5 2.564-1.488 1.386-3.944 3.071-5.456 3.744-1.512.673-2.75 1.564-2.75 1.98 0 .416 5.738.783 12.75.816 7.012.032 15 .539 17.75 1.126 2.75.586 22.775 1.464 44.5 1.949 70.398 1.573 101.433 2.561 104.762 3.336 4.327 1.007 4.963 2.329 2.098 4.359-4.482 3.177-7.105 4.17-11.009 4.17-2.157 0-4.918.617-6.136 1.371-1.678 1.038-6.338 1.333-19.215 1.214-9.35-.086-19.7.232-23 .707-5.492.789-18.806 1.338-79 3.257-15.743.502-21.395 1.018-22.579 2.061-.868.764-2.106 1.39-2.75 1.39-1.799 0-1.43.814 1.803 3.974 3.31 3.236-.459 2.836 45.026 4.779 9.625.411 18.175 1.197 19 1.747 1.557 1.038 17.459 1.86 66 3.414 59.355 1.899 63.302 2.129 66.75 3.885 4.11 2.094 4.147 4.607.096 6.628-2.433 1.214-6.485 1.574-17.75 1.579-8.028.003-17.296.504-20.596 1.113-7.88 1.454-27.713 2.805-55.5 3.778-12.375.434-24.525 1.29-27 1.902-2.475.613-9.311 1.133-15.191 1.157-5.999.025-10.962.483-11.309 1.044-.34.55-4.641 1-9.559 1-8.106 0-10.677.809-7.941 2.5.55.34 1 1.466 1 2.503 0 2.151 5.325 2.322 117.201 3.757 44.011.564 57.997 1.037 58.95 1.99.687.688 2.572 1.25 4.189 1.25 2.557 0 5.531 2.185 5.628 4.136.018.35-1.543 1.384-3.468 2.297-1.925.913-3.5 2.09-3.5 2.614s-1.548.953-3.441.953c-1.893 0-3.719.45-4.059 1-.374.605-7.809 1.017-18.809 1.044-10.005.024-20.216.501-22.691 1.061-2.475.559-19.8 1.447-38.5 1.971-40.701 1.142-53.719 1.829-54.835 2.895-.459.439.666 1.931 2.5 3.315 3.152 2.379 4.157 2.538 18.335 2.901 8.527.219 15.874.872 17.025 1.514 1.361.759 11.664 1.17 31.409 1.253 16.162.069 29.875.444 30.475.835.6.391 12.116 1.05 25.591 1.464 52.723 1.619 63.877 2.218 65.153 3.497.686.688 2.732 1.25 4.547 1.25 1.815 0 3.3.45 3.3 1s.9 1 2 1c1.111 0 2 .667 2 1.5 0 .924-.938 1.5-2.441 1.5-1.343 0-2.719.45-3.059 1-.34.55-2.111 1-3.937 1-1.825 0-3.857.65-4.516 1.443-.944 1.138-5.475 1.552-21.373 1.952-25.373.638-42.734 1.839-44.674 3.089-1.595 1.029-17.465 2.058-54 3.5-28.738 1.134-34.5 1.87-34.5 4.405 0 4.219 5.38 4.52 81.628 4.567 62.412.038 71.787.237 72.872 1.544.685.825 2.487 1.5 4.006 1.5 1.971 0 3.839 1.193 6.528 4.169l3.766 4.169-2.261 1.831c-1.883 1.526-4.088 1.831-13.216 1.831-6.932 0-11.757.459-13.139 1.25-2.24 1.282-14.454 2.056-57.184 3.625-12.65.464-27.912 1.338-33.917 1.941-6.004.603-11.313.851-11.798.551-.484-.299-1.595-.27-2.469.065-1.42.545-1.398.82.203 2.589.985 1.088 2.327 1.979 2.982 1.979.656 0 2.498.647 4.095 1.437 3.725 1.843 23.062 2.547 86.373 3.144 29.713.28 48.849.837 49.45 1.438.54.54 6.655.981 13.59.981 9.538 0 13.081.358 14.55 1.468 1.277.966 4.4 1.479 9.132 1.5 3.955.018 7.469.482 7.809 1.032.34.55 1.507 1 2.594 1 2.244 0 6.906 2.778 6.906 4.115 0 .487-4.08.885-9.066.885-5.421 0-9.944.503-11.25 1.25-1.317.754-8.531 1.539-18.184 1.977-25.239 1.148-37.878 2.192-39.5 3.264-.825.546-6.45 1.323-12.5 1.728-6.05.406-15.05 1.207-20 1.781-4.95.574-13.95 1.385-20 1.801-6.05.416-11.983 1.306-13.184 1.978-1.202.672-5.113 1.221-8.691 1.221-3.579 0-6.785.45-7.125 1-.34.55-4.754 1.014-9.809 1.032-6.492.022-9.761.463-11.132 1.5-1.203.91-4.209 1.468-7.905 1.468-5.717 0-5.895.076-4.307 1.831.912 1.007 1.356 2.132.989 2.5-.368.368-6.219.669-13.003.669-6.783 0-12.333.4-12.333.889 0 1.813 3.579 5.168 5.997 5.622 1.373.258 2.648.924 2.833 1.479.185.556 1.208 1.01 2.273 1.01 1.065 0 3.719 1.125 5.897 2.5 2.178 1.375 4.419 2.5 4.98 2.5.561 0 1.02.45 1.02 1s.797 1 1.772 1c1.896 0 18.667 16.228 17.735 17.16-.305.305.131 1.124.969 1.82s1.524 2.083 1.524 3.083c0 1.001.45 2.097 1 2.437.55.34 1 1.886 1 3.437 0 1.55.675 3.378 1.5 4.063.825.685 1.5 2.246 1.5 3.469 0 1.223.708 3.643 1.573 5.377l1.573 3.154 51.177.156c28.147.086 52.302.369 53.677.629 1.375.259 31.312.645 66.526.858l64.026.386 1.724-2.919c.948-1.605 1.724-3.862 1.724-5.014 0-1.153.45-2.096 1-2.096s1-1.295 1-2.878c0-1.582.67-3.433 1.489-4.113.819-.68 1.274-1.584 1.011-2.009-.263-.425.192-1.329 1.011-2.009.819-.68 1.489-1.804 1.489-2.499 0-1.569 1.805-5.05 4.75-9.16 1.237-1.728 2.25-3.437 2.25-3.798 0-.362 3.127-3.791 6.949-7.62l6.948-6.963 16.719.275c11.598.19 16.838.63 17.106 1.436.256.771-1.736 1.318-5.918 1.626-6.253.459-13.702 2.133-17.04 3.83-.955.485-2.418.882-3.25.882-.833 0-1.514.42-1.514.933 0 .513-.97 1.24-2.156 1.616-3.212 1.02-19.844 17.441-19.844 19.594 0 1.021-.348 1.857-.773 1.857-.425 0-1.599 1.688-2.61 3.75a488.383 488.383 0 01-2.728 5.486c-.489.955-.889 2.557-.889 3.559 0 1.003-.661 2.696-1.468 3.764-.808 1.067-1.483 3.602-1.5 5.632-.018 2.03-.482 3.969-1.032 4.309-1.31.81-1.31 20.19 0 21 .55.34 1 2.561 1 4.937 0 2.618.59 4.808 1.5 5.563.825.685 1.5 2.513 1.5 4.063 0 1.551.45 3.097 1 3.437.55.34 1 1.443 1 2.452s.675 2.093 1.5 2.41c.825.316 1.5 1.489 1.5 2.607 0 1.117.374 2.031.831 2.031.457 0 1.445 1.237 2.195 2.75 1.672 3.373 11.991 14.25 13.518 14.25.609 0 2.164 1.125 3.456 2.5 1.292 1.375 3.17 2.5 4.174 2.5 1.004 0 1.826.45 1.826 1s1.013 1.014 2.25 1.032c1.237.017 3.124.692 4.191 1.5 2.795 2.114 28.323 2.114 31.118 0 1.067-.808 2.841-1.516 3.941-1.573 1.1-.058 3.35-.966 5-2.017 1.65-1.052 3.9-2.316 5-2.808 2.952-1.323 18.5-17.83 18.5-19.642 0-.855.675-1.814 1.5-2.13.825-.317 1.5-1.209 1.5-1.983 0-.773.412-2.188.916-3.143 2.445-4.635 4.084-9.281 4.084-11.578 0-1.397.45-2.818 1-3.158.592-.366 1-6.522 1-15.094 0-11.409-.329-14.979-1.554-16.849-1.211-1.848-1.28-2.542-.309-3.141.7-.433 1.417-.255 1.637.407.216.647 1.2 1.177 2.187 1.177.987 0 2.354.675 3.039 1.5 1.837 2.213 34.163 2.213 36 0 .781-.941 2.97-1.497 5.872-1.491 3.968.007 5.193.542 8.586 3.75l3.959 3.741H861.5l.29 7.661c.198 5.205.759 8.05 1.75 8.873.91.755 1.46 3.026 1.46 6.029 0 2.651.45 5.097 1 5.437.55.34 1 1.668 1 2.952s.675 2.593 1.5 2.91c.825.316 1.5 1.251 1.5 2.076 0 2.082 3.755 8.577 6.619 11.448 1.31 1.313 2.381 2.943 2.381 3.623 0 1.43 6.441 7.219 9.75 8.762 1.237.578 2.25 1.325 2.25 1.662 0 .337 1.688 1.439 3.75 2.45a488.383 488.383 0 015.486 2.728c.955.489 2.557.889 3.559.889 1.003 0 2.696.661 3.764 1.468 1.433 1.084 4.817 1.468 12.941 1.468s11.508-.384 12.941-1.468c1.068-.807 2.679-1.468 3.581-1.468 3.485 0 19.526-9.809 22.731-13.9 7.082-9.042 11.083-15.21 11.174-17.228.04-.895.743-2.183 1.562-2.863.819-.68 1.292-1.554 1.051-1.944-.241-.39.214-1.965 1.011-3.501.797-1.536 1.449-4.065 1.449-5.619 0-1.555.45-3.105 1-3.445 1.329-.821 1.329-26.179 0-27-.55-.34-1-2.21-1-4.155 0-1.945-.742-4.793-1.65-6.329-.907-1.536-1.36-3.547-1.007-4.468.795-2.072 2.657-1.088 2.657 1.404 0 1.009.675 2.093 1.5 2.41.825.316 1.5 1.283 1.5 2.149 0 .865.456 2.117 1.014 2.781 2.086 2.485 5.986 8.831 5.986 9.741 0 .519.775 1.849 1.722 2.956 1.632 1.905 2.917 2.011 24.378 2.011 18.918 0 22.86-.247 23.9-1.5.685-.825 2.459-1.5 3.942-1.5 1.649 0 4.323-1.391 6.878-3.578l4.18-3.578V441.699l-5.523-5.35c-3.038-2.942-6.161-5.349-6.941-5.349-.78 0-1.696-.45-2.036-1-.34-.55-1.443-1-2.452-1s-2.093-.675-2.41-1.5c-.316-.825-1.392-1.5-2.391-1.5-2.079 0-5.247-4.784-5.247-7.924 0-2.92 4.599-9.944 7.287-11.13 1.217-.536 3.563-1.836 5.213-2.888 1.65-1.051 3.732-1.945 4.628-1.985.895-.04 2.196-.759 2.892-1.597.696-.838 1.497-1.292 1.78-1.009.284.284 1.12.014 1.858-.598 1.007-.836 1.342-4.652 1.342-15.3 0-16.998-.455-18.069-7.675-18.069h-4.825l-.312-3.773c-.171-2.075.391-5.182 1.25-6.904.976-1.955 1.562-5.798 1.562-10.238 0-6.675-.182-7.258-2.997-9.596-1.649-1.369-4.462-2.714-6.25-2.989-2.872-.441-3.239-.852-3.135-3.5.065-1.65.268-7.5.451-13l.333-10-3.701-.31c-3.613-.303-3.703-.41-3.79-4.5-.217-10.22-.083-12.14 1.107-15.743 1.116-3.383 1.025-4.324-.793-8.191-1.129-2.403-2.767-4.961-3.639-5.685-.872-.724-1.586-1.699-1.586-2.167 0-.468-1.934-2.785-4.298-5.149-3.744-3.744-9.838-7.387-18.702-11.179-3.504-1.5-11.992-7.475-15.141-10.659-3.609-3.65-11.396-8.917-13.182-8.917-.805 0-1.722-.675-2.039-1.5-.316-.825-1.377-1.533-2.357-1.573-.979-.04-3.131-.909-4.781-1.931-6.191-3.835-18.891-9.996-20.604-9.996-.978 0-2.056-.45-2.396-1-.391-.633-12.47-1-32.937-1-27.507 0-32.503-.223-33.563-1.5-.924-1.113-3.389-1.5-9.563-1.5-4.576 0-8.597-.45-8.937-1-.34-.55-3.912-1-7.937-1-4.34 0-8.825-.629-11.018-1.546-2.354-.983-5.946-1.438-9.872-1.25l-6.173.296-.316 3.848c-.187 2.271.257 4.525 1.082 5.5.769.909 2.162 3.227 3.094 5.152.932 1.925 2.081 4.175 2.552 5 .471.825 1.421 2.85 2.112 4.5 2.271 5.423 4.256 9.971 5.123 11.736.469.955.853 2.418.853 3.25 0 .833.45 1.514 1 1.514s1 .675 1 1.5-.845 1.5-1.878 1.5c-1.032 0-2.446.686-3.142 1.524-.696.838-1.481 1.308-1.746 1.043-.264-.264-1.93.625-3.702 1.976-1.771 1.351-3.537 2.457-3.923 2.457-.386 0-2.704 1.913-5.151 4.25l-4.45 4.25-.004 36.316c-.002 22.103.6 45.388 1.54 59.5.849 12.751 1.411 30.384 1.25 39.184l-.294 16-70.5.651c-38.775.358-77.25 1.118-85.5 1.69-15.992 1.108-241.141 1.618-243.918.552-3.102-1.19-1.506-2.393 3.175-2.393 2.616 0 6.328-.529 8.25-1.175 4.26-1.433 75.466-2.642 313.493-5.326 58.408-.658 59.017-.686 60.646-2.771 1.429-1.826 1.724-6.678 2.227-36.666.319-19.009 1.005-38.387 1.524-43.062.519-4.675.98-36.014 1.023-69.643.07-53.476-.108-61.215-1.42-61.719-.825-.316-1.5-1.296-1.5-2.178 0-2.207-2.442-4.45-7.8-7.162L781.661 187l-70.58-.1c-38.82-.054-76.431-.548-83.581-1.097-13.931-1.069-148.295-2.43-327.75-3.32l-110.75-.55v2.334m768.5 93.608c-4.95.344-9.983 1.188-11.184 1.875-1.202.688-3.795 1.25-5.764 1.25-1.968 0-4.361.417-5.316.927-.955.51-2.554 1.183-3.555 1.495-1.637.511-1.767 1.491-1.302 9.823.955 17.083 2.207 28.239 3.419 30.439.661 1.202 1.202 5.069 1.202 8.595 0 10.045-.689 9.812 33.427 11.309l13.926.612 8.103 8.4 8.103 8.4H1017v-4.334c0-3.638-.617-5.002-3.846-8.5-2.613-2.829-4.679-4.166-6.441-4.166-1.427 0-2.89-.478-3.251-1.062-.361-.584-1.679-1.45-2.928-1.925-1.355-.515-2.485-1.976-2.799-3.619-.29-1.516-.283-13.615.015-26.887.493-21.914.381-24.378-1.219-26.819-.968-1.478-2.609-2.688-3.646-2.688s-1.885-.42-1.885-.933c0-.513-.788-1.158-1.75-1.435-3.225-.926-22.655-1.389-31.75-.757m-54.225 149.25c-.619.619-2.319 1.125-3.779 1.125s-2.892.619-3.182 1.375c-.291.756-1.353 1.375-2.362 1.375-1.009 0-2.112.45-2.452 1-.34.55-1.3 1-2.133 1-1.509 0-20.367 18.102-20.367 19.551 0 .418-1.125 2.235-2.5 4.038-1.964 2.575-2.5 4.453-2.5 8.762 0 3.017.272 6.195.605 7.061.855 2.23 2.395.942 2.395-2.002 0-1.36.675-2.732 1.5-3.048.825-.317 1.5-1.401 1.5-2.41 0-1.009.45-2.112 1-2.452.55-.34 1-1.327 1-2.194s1.125-2.619 2.5-3.894c1.375-1.274 2.5-2.968 2.5-3.764 0-1.494 10.486-11.648 12.029-11.648.477 0 2.082-1.125 3.566-2.5 1.483-1.375 3.531-2.5 4.551-2.5s1.854-.45 1.854-1 1.295-1 2.878-1c1.582 0 3.437-.675 4.122-1.5.993-1.197 3.951-1.5 14.622-1.5 8.079 0 13.378-.389 13.378-.981 0-.539-1.237-1.246-2.75-1.569-1.513-.324-3.784-1.007-5.047-1.519-3.296-1.336-21.553-1.181-22.928.194m33.268 4.806c-.317.512-.118 1.213.441 1.559 1.193.737 3.016-.199 3.016-1.549 0-1.217-2.707-1.225-3.457-.01M711 436.893c0 1.085 2.471 2.107 5.095 2.107 1.063 0 2.714.397 3.669.883.955.486 3.086 1.492 4.736 2.235 4.887 2.202 13.495 8.827 15.312 11.785.928 1.512 4.079 5.415 7.002 8.673 4.835 5.39 5.431 5.766 6.61 4.174.815-1.1 2.627-1.75 4.877-1.75 1.97 0 3.859-.45 4.199-1 .34-.55 3.011-1 5.937-1 3.507 0 5.742-.511 6.563-1.5.685-.825 2.54-1.5 4.122-1.5H782v-24h-35.5c-20.165 0-35.5.386-35.5.893m244.079 4.821c-.125 1.922 12.58 14.646 13.362 13.382.703-1.138-9.527-12.096-11.292-12.096-.54 0-1.209-.562-1.487-1.25-.379-.941-.524-.95-.583-.036M912.5 454c-.34.55-1.893 1-3.452 1-1.597 0-3.085.655-3.41 1.5-.316.825-1.413 1.5-2.438 1.5-2.224 0-12.2 10.153-12.2 12.416 0 .871-.45 1.584-1 1.584s-1 .845-1 1.878c0 1.032-.675 2.437-1.5 3.122s-1.5 2.513-1.5 4.063c0 1.551-.45 3.097-1 3.437-.563.348-1 5.177-1 11.059 0 6.294.397 10.441 1 10.441.55 0 1 1.52 1 3.378 0 1.857.675 3.937 1.5 4.622s1.524 2.202 1.554 3.372c.078 3.063 6.92 12.549 10.446 14.483 1.65.905 3.225 1.905 3.5 2.223 1.025 1.186 7.371 3.922 9.095 3.922.983 0 2.065.45 2.405 1 .34.55 3.04 1 6 1s5.66-.45 6-1c.34-.55 1.661-1 2.937-1 1.275 0 2.878-.675 3.563-1.5s1.764-1.5 2.399-1.5c1.735 0 14.022-13.059 15.524-16.5.721-1.65 1.708-3.781 2.194-4.736.486-.955.897-3.205.915-5 .017-1.795.692-4.138 1.5-5.205 2.042-2.7 2.019-14.857-.032-16.559-.825-.685-1.5-2.751-1.5-4.592 0-1.841-.913-4.973-2.029-6.959-2.5-4.451-10.063-14.832-11.125-15.271-.429-.178-2.39-1.415-4.357-2.75-1.968-1.336-4.656-2.428-5.974-2.428-1.319 0-2.675-.45-3.015-1-.34-.55-3.715-1-7.5-1s-7.16.45-7.5 1m-218 5c-.34.55-1.647 1-2.905 1-3.886 0-7.97 2.692-14.774 9.74-7.135 7.391-10.821 13.825-10.821 18.889 0 1.789-.45 3.531-1 3.871-.55.34-1 4.615-1 9.5s.45 9.16 1 9.5c.55.34 1 2.14 1 4 0 1.86.45 3.66 1 4 .55.34 1 1.297 1 2.126s1.125 2.982 2.5 4.785 2.5 3.76 2.5 4.348c0 1.412 8.924 9.241 10.534 9.241.689 0 1.511.675 1.828 1.5.316.825 1.688 1.5 3.048 1.5 1.359 0 2.75.45 3.09 1 .34.55 4.39 1 9 1s8.66-.45 9-1c.34-.55 1.506-1 2.59-1 1.085 0 2.232-.675 2.548-1.5.317-.825 1.334-1.5 2.261-1.5 1.707 0 10.101-7.847 10.101-9.443 0-.478 1.148-2.373 2.551-4.213 1.403-1.839 2.251-3.344 1.885-3.344-.366 0 .061-1.109.949-2.465.888-1.355 1.615-4.055 1.615-6 0-1.944.45-3.535 1-3.535.588 0 1-3.5 1-8.5s-.412-8.5-1-8.5c-.55 0-1-2.25-1-5s-.45-5-1-5-1-1.144-1-2.543c0-2.814-7.185-13.209-9.826-14.217-.921-.352-2.574-1.479-3.674-2.505-5.225-4.876-22.047-8.896-24-5.735m142.015 1.975c-.353.572-.02 1.278.739 1.569 2.408.924 21.743.006 22.001-1.044.34-1.386-21.89-1.899-22.74-.525M410.588 686l-20.912.5-4.257 6.845c-2.342 3.764-5.419 8.148-6.838 9.741-1.42 1.593-2.589 3.463-2.598 4.155-.01.693-1.135 2.319-2.5 3.614-1.366 1.295-2.483 2.904-2.483 3.576 0 .671-1.125 2.277-2.5 3.569-1.375 1.292-2.5 2.967-2.5 3.722 0 .755-1.125 2.416-2.5 3.69-1.375 1.275-2.5 2.983-2.5 3.798 0 .814-.906 2.3-2.013 3.302-1.108 1.002-2.96 3.718-4.118 6.035-2.584 5.175-7.232 10.756-8.174 9.815-.382-.382-.695-14.579-.695-31.547v-30.853l-22.592.269-22.593.269.009 78 .009 78 22.583.269 22.584.269v-17.366c0-18.29.57-21.163 4.993-25.165 1.104-.999 2.014-2.31 2.023-2.912.009-.602 1.409-2.67 3.112-4.595 1.703-1.925 3.498-4.549 3.99-5.831s1.396-2.164 2.008-1.96c1.53.51 5.874 8.42 5.874 10.695 0 1.018.675 2.411 1.5 3.096s1.5 2.09 1.5 3.122c0 1.033.45 1.878 1 1.878s1 .845 1 1.878c0 1.032.675 2.437 1.5 3.122s1.5 2.09 1.5 3.122c0 1.033.45 1.878 1 1.878s1 .858 1 1.908c0 1.615 2.211 6.808 6.102 14.328.494.955.898 2.432.898 3.282 0 .85.675 1.804 1.5 2.12.825.317 1.5 1.358 1.5 2.314s.823 2.483 1.829 3.393c1.597 1.445 4.935 1.655 26.333 1.655 13.478 0 24.749-.245 25.048-.544.3-.299-3.047-7.836-7.437-16.75-4.389-8.913-8.436-17.331-8.993-18.706-.556-1.375-1.38-3.175-1.83-4-.451-.825-3.32-6.339-6.378-12.253a4283.479 4283.479 0 00-6.478-12.5c-.505-.961-4.114-8.272-8.018-16.247-8.403-17.165-8.753-19.681-3.576-25.729 1.925-2.249 3.5-4.514 3.5-5.034 0-.52 1.125-2.159 2.5-3.642 1.375-1.484 2.5-2.952 2.5-3.263 0-.31 1.575-2.71 3.5-5.332s3.5-5.022 3.5-5.332c0-.311 1.125-1.779 2.5-3.263 1.375-1.483 2.5-3.228 2.5-3.877 0-.649 1.125-2.236 2.5-3.528 1.375-1.292 2.5-2.867 2.5-3.5s1.125-2.208 2.5-3.5c1.375-1.292 2.5-3.17 2.5-4.174 0-1.004.342-1.826.759-1.826 1.085 0 3.346-3.848 2.471-4.204-.402-.163-10.14-.071-21.642.204M184 689.5c0 1.925-.45 3.5-1 3.5s-1 1.489-1 3.309-.661 4.182-1.468 5.25c-.808 1.067-1.483 3.152-1.5 4.632-.018 1.48-.482 2.969-1.032 3.309-.55.34-1 1.915-1 3.5s-.45 3.16-1 3.5c-.55.34-1 1.886-1 3.437 0 1.55-.675 3.378-1.5 4.063-.825.685-1.5 2.513-1.5 4.063 0 1.551-.45 3.097-1 3.437-.55.34-1 2.08-1 3.868 0 1.787-.661 4.123-1.468 5.191-.808 1.067-1.483 3.152-1.5 4.632-.018 1.48-.482 2.969-1.032 3.309-.55.34-1 1.886-1 3.437 0 1.55-.698 3.397-1.55 4.105-.853.707-1.438 2.225-1.301 3.372.137 1.147-.29 3.069-.95 4.27-.659 1.202-1.199 3.088-1.199 4.191 0 1.104-.45 2.285-1 2.625-.55.34-1 2.406-1 4.59 0 2.609-.515 4.17-1.5 4.548-.926.356-1.5 1.875-1.5 3.969 0 1.866-.45 3.393-1 3.393s-1 1.52-1 3.378c0 1.857-.675 3.937-1.5 4.622s-1.5 2.738-1.5 4.563c0 1.826-.45 3.597-1 3.937-.55.34-1 1.851-1 3.359s-.466 3.207-1.037 3.778c-.57.57-1.272 2.347-1.559 3.95-.288 1.602-.947 3.341-1.464 3.863-.517.523-.94 2.435-.94 4.25s-.45 3.3-1 3.3-1 1.295-1 2.878c0 1.582-.675 3.437-1.5 4.122-.915.76-1.5 2.951-1.5 5.622V843h18.3c19.998 0 20.7-.191 20.7-5.641 0-1.783.45-3.519 1-3.859.55-.34 1-1.886 1-3.437 0-1.55.671-3.375 1.49-4.055.893-.741 1.268-2.123.936-3.447-.34-1.353.052-2.713 1.01-3.508.86-.714 1.564-2.255 1.563-3.425-.001-2.111.161-2.126 20.75-1.842 11.413.157 21.314.48 22.001.718.688.238 1.25 1.797 1.25 3.465 0 1.667.45 3.031 1 3.031s1 1.527 1 3.393c0 2.094.574 3.613 1.5 3.969.845.324 1.5 1.812 1.5 3.407 0 1.557.415 3.258.923 3.781.508.522 1.07 2.3 1.25 3.95l.327 3 24.75.267c22.901.248 27.161-.159 23.75-2.267-.55-.34-1-1.915-1-3.5s-.45-3.16-1-3.5c-.55-.34-1-1.886-1-3.437 0-1.55-.675-3.378-1.5-4.063-.825-.685-1.5-2.513-1.5-4.063 0-1.551-.45-3.097-1-3.437-.55-.34-1-1.915-1-3.5s-.45-3.16-1-3.5c-.55-.34-1.014-1.829-1.032-3.309-.017-1.48-.692-3.565-1.5-4.632-.807-1.068-1.468-3.179-1.468-4.691 0-1.513-.45-3.028-1-3.368-.55-.34-1-2.111-1-3.937 0-1.825-.675-3.878-1.5-4.563-.825-.685-1.5-2.54-1.5-4.122 0-1.583-.45-2.878-1-2.878s-1.014-1.462-1.032-3.25c-.017-1.788-.692-4.124-1.5-5.191-.807-1.068-1.468-2.954-1.468-4.191 0-1.238-.45-2.528-1-2.868-.55-.34-1-1.915-1-3.5s-.45-3.16-1-3.5c-.55-.34-1-1.855-1-3.368 0-1.512-.661-3.623-1.468-4.691-.808-1.067-1.483-3.152-1.5-4.632-.018-1.48-.482-2.969-1.032-3.309-.55-.34-1-1.886-1-3.437 0-1.55-.675-3.378-1.5-4.063-.825-.685-1.5-2.765-1.5-4.622 0-1.858-.45-3.378-1-3.378s-1.014-1.462-1.032-3.25c-.017-1.788-.692-4.124-1.5-5.191-.807-1.068-1.468-2.954-1.468-4.191 0-1.238-.45-2.528-1-2.868-.55-.34-1-2.14-1-4 0-1.86-.45-3.66-1-4-.55-.34-1-1.886-1-3.437 0-1.55-.675-3.378-1.5-4.063-.825-.685-1.5-2.45-1.5-3.922 0-4.97-.588-5.078-27.7-5.078H184v3.5m262-.059c0 1.893.45 3.719 1 4.059.55.34 1 2.199 1 4.13 0 1.932.675 4.188 1.5 5.013.825.825 1.5 3.268 1.5 5.428 0 2.161.45 3.929 1 3.929s1 1.485 1 3.3c0 1.815.49 3.79 1.089 4.389.599.599 1.246 2.776 1.438 4.838.191 2.061.826 4.226 1.411 4.811.584.584 1.062 2.745 1.062 4.803s.45 4.019 1 4.359c.55.34 1 2.336 1 4.437 0 2.174.646 4.354 1.5 5.063.854.709 1.5 2.889 1.5 5.063 0 2.101.45 4.097 1 4.437.55.34 1.014 2.054 1.032 3.809.017 1.755.692 4.065 1.5 5.132.807 1.068 1.468 3.404 1.468 5.191 0 1.788.45 3.528 1 3.868.55.34 1 2.365 1 4.5s.45 4.16 1 4.5c.55.34 1.003 1.829 1.006 3.309.004 1.48.679 3.98 1.5 5.555.822 1.576 1.494 4.362 1.494 6.191 0 1.83.45 3.605 1 3.945.55.34 1.014 2.054 1.032 3.809.017 1.755.692 4.065 1.5 5.132.807 1.068 1.468 3.404 1.468 5.191 0 1.788.45 3.528 1 3.868.55.34 1 2.336 1 4.437 0 2.174.646 4.354 1.5 5.063.825.685 1.5 2.556 1.5 4.158 0 1.602.727 4.022 1.615 5.377L488.23 843H530v-3.809c0-2.095.661-4.682 1.468-5.75.808-1.067 1.483-3.602 1.5-5.632.018-2.03.482-3.969 1.032-4.309.55-.34 1-2.579 1-4.976 0-2.551.508-4.527 1.226-4.766.703-.234 1.122-1.778.982-3.615-.135-1.763.3-4.204.966-5.425.666-1.22 1.554-4.243 1.973-6.718 1.874-11.076 2.626-14.173 3.702-15.249.633-.633 1.151-3.059 1.151-5.392s.45-4.519 1-4.859c.55-.34 1-2.336 1-4.437 0-2.174.646-4.354 1.5-5.063.825-.685 1.5-1.865 1.5-2.622 0-.758.45-1.378 1-1.378s1 1.745 1 3.878c0 2.226.639 4.407 1.5 5.122.854.709 1.5 2.889 1.5 5.063 0 2.101.45 4.097 1 4.437.55.34 1 2.336 1 4.437 0 2.174.646 4.354 1.5 5.063.915.76 1.5 2.951 1.5 5.622 0 2.408.45 4.378 1 4.378s1 1.935 1 4.3c0 2.365.509 4.809 1.132 5.432.623.623 1.283 2.813 1.467 4.867.185 2.055.8 4.2 1.368 4.768.568.568 1.033 2.716 1.033 4.774s.45 4.019 1 4.359c.55.34 1 2.08 1 3.868 0 1.787.661 4.123 1.468 5.191.808 1.067 1.483 3.403 1.5 5.191L572 843h19.845c22.333 0 23.155-.258 23.155-7.27 0-1.986.45-3.89 1-4.23.55-.34 1-1.855 1-3.368 0-1.512.661-3.623 1.468-4.691.808-1.067 1.483-3.377 1.5-5.132.018-1.755.482-3.469 1.032-3.809.55-.34 1-2.08 1-3.868 0-1.787.661-4.123 1.468-5.191.808-1.067 1.483-3.602 1.5-5.632.018-2.03.482-3.969 1.032-4.309.55-.34 1-2.097 1-3.905 0-1.808.717-4.724 1.592-6.48.876-1.755 1.353-3.816 1.06-4.58-.293-.764.115-1.927.907-2.584.794-.659 1.441-2.91 1.441-5.014 0-2.101.45-4.097 1-4.437.55-.34 1-1.855 1-3.368 0-1.512.661-3.623 1.468-4.691.808-1.067 1.483-3.602 1.5-5.632.018-2.03.482-3.969 1.032-4.309.55-.34 1.014-2.279 1.032-4.309.017-2.03.692-4.565 1.5-5.632.807-1.068 1.468-3.655 1.468-5.75s.45-3.809 1-3.809 1-1.832 1-4.071c0-2.369.657-4.729 1.572-5.644.916-.916 1.348-2.468 1.034-3.717-.296-1.18.122-3.417.928-4.971.806-1.554 1.466-4.323 1.466-6.152 0-1.83.45-3.605 1-3.945.55-.34 1-1.732 1-3.094 0-1.362.62-3.473 1.378-4.691.758-1.218 1.647-3.677 1.975-5.465l.597-3.25H618v2.809c0 1.545-.661 3.682-1.468 4.75-.808 1.067-1.483 3.377-1.5 5.132-.018 1.755-.482 3.469-1.032 3.809-.55.34-1 2.322-1 4.405s-.706 5.204-1.57 6.934c-.863 1.731-1.319 3.937-1.013 4.904.307.966-.112 3.046-.93 4.621-.818 1.576-1.487 4.362-1.487 6.191 0 1.83-.45 3.605-1 3.945-.55.34-1.016 2.279-1.035 4.309-.02 2.03-.679 4.816-1.465 6.191s-1.445 4.161-1.465 6.191c-.019 2.03-.485 3.969-1.035 4.309-.55.34-1.014 2.279-1.032 4.309-.017 2.03-.692 4.565-1.5 5.632-.807 1.068-1.468 3.462-1.468 5.32 0 2.931-.298 3.336-2.25 3.059-1.839-.262-2.308-1.05-2.567-4.32-.174-2.2-.737-4.427-1.25-4.95-.513-.522-.947-2.547-.965-4.5-.017-1.952-.692-4.424-1.5-5.491-.807-1.068-1.468-3.404-1.468-5.191 0-1.788-.45-3.528-1-3.868-.55-.34-1.014-2.279-1.032-4.309-.017-2.03-.694-4.567-1.504-5.639-.811-1.071-1.209-2.78-.886-3.799.323-1.018-.124-2.938-.995-4.267-.871-1.328-1.583-3.98-1.583-5.892 0-1.912-.45-3.754-1-4.094-.55-.34-1-2.08-1-3.868 0-1.787-.661-4.123-1.468-5.191-.808-1.067-1.483-3.602-1.5-5.632-.018-2.03-.482-3.969-1.032-4.309-.55-.34-1-2.066-1-3.837 0-1.77-.701-4.218-1.557-5.44-1.509-2.155-2.098-2.223-19.3-2.223-12.467 0-18.1.357-18.943 1.2-.66.66-1.2 3.108-1.2 5.441 0 2.333-.45 4.519-1 4.859-.55.34-1 2.336-1 4.437 0 2.174-.646 4.354-1.5 5.063-.954.791-1.5 3-1.5 6.063 0 2.651-.45 5.097-1 5.437-.55.34-1.014 2.279-1.032 4.309-.017 2.03-.692 4.565-1.5 5.632-.807 1.068-1.468 3.629-1.468 5.691 0 2.063-.45 4.028-1 4.368-.55.34-1 2.407-1 4.594 0 2.187-.727 5.086-1.616 6.443-.892 1.361-1.403 3.583-1.14 4.959.271 1.416-.111 2.978-.884 3.62-.768.637-1.36 3.035-1.36 5.506 0 2.408-.421 4.378-.937 4.378-.515 0-1.077 1.428-1.25 3.173-.436 4.418-2.804 4.968-2.845.66-.017-1.833-.692-4.207-1.5-5.274-.807-1.068-1.468-3.629-1.468-5.691 0-2.063-.45-4.028-1-4.368-.55-.34-1-2.59-1-5s-.45-4.66-1-5c-.55-.34-1-2.631-1-5.09 0-3.053-.476-4.655-1.5-5.048-1.014-.39-1.5-1.98-1.5-4.91 0-2.384-.45-4.612-1-4.952-.55-.34-1-2.336-1-4.437 0-2.174-.646-4.354-1.5-5.063-.915-.76-1.5-2.951-1.5-5.622 0-2.408-.45-4.378-1-4.378s-1-1.749-1-3.886-.669-5.174-1.487-6.75c-.818-1.575-1.227-3.684-.91-4.686.329-1.037-.174-2.652-1.168-3.75-1.62-1.789-3.279-1.928-23.09-1.928H446v3.441m253.2-2.241c-.66.66-1.2 2.149-1.2 3.309 0 1.16-.661 2.982-1.468 4.05-.808 1.067-1.483 3.152-1.5 4.632-.018 1.48-.482 2.969-1.032 3.309-.55.34-1 1.886-1 3.437 0 1.55-.675 3.378-1.5 4.063-.854.709-1.5 2.889-1.5 5.063 0 2.101-.45 4.097-1 4.437-.55.34-1 1.886-1 3.437 0 1.55-.612 3.326-1.36 3.947-.748.621-1.162 2.166-.92 3.433.257 1.341-.22 2.853-1.14 3.616-.869.722-1.58 2.58-1.58 4.13 0 1.551-.45 3.097-1 3.437-.55.34-1.014 1.829-1.032 3.309-.017 1.48-.692 3.565-1.5 4.632-.807 1.068-1.468 2.954-1.468 4.191 0 1.238-.45 2.528-1 2.868-.55.34-1 1.841-1 3.337 0 1.495-.72 3.746-1.6 5.003-.881 1.256-1.377 3.14-1.104 4.186.274 1.045-.131 2.422-.899 3.06-.768.637-1.397 2.652-1.397 4.477 0 1.826-.45 3.597-1 3.937-.55.34-1 2.111-1 3.937 0 1.825-.675 3.878-1.5 4.563-.825.685-1.5 2.765-1.5 4.622 0 1.858-.45 3.378-1 3.378s-1.014 1.462-1.032 3.25c-.017 1.788-.692 4.124-1.5 5.191-.807 1.068-1.468 2.98-1.468 4.25s-.45 2.309-1 2.309-1.014 1.462-1.032 3.25c-.017 1.788-.678 4.104-1.468 5.147-.79 1.044-1.207 2.268-.927 2.721.28.453-.185 2.164-1.032 3.803-.848 1.639-1.541 4.127-1.541 5.529 0 1.403-.45 2.55-1 2.55s-1 1.81-1 4.022v4.022l18.75-.272 18.75-.272.34-2.997c.187-1.648.834-3.302 1.438-3.675.603-.373 1.2-2.161 1.325-3.975.126-1.813.716-3.459 1.313-3.658.596-.199 1.084-1.899 1.084-3.778s.45-3.417 1-3.417 1-1.527 1-3.393c0-1.953.582-3.616 1.372-3.92.755-.289 10.27-.58 21.145-.645 19.112-.115 19.851-.045 22.128 2.094 1.541 1.448 2.355 3.341 2.355 5.479 0 1.797.45 3.545 1 3.885.55.34 1 2.111 1 3.937 0 1.825.698 3.897 1.55 4.605.853.707 1.438 2.225 1.302 3.372-.137 1.147.399 3.099 1.19 4.336 1.426 2.23 1.652 2.25 25.199 2.25 22.852 0 23.759-.074 23.759-1.941 0-1.068-.45-2.219-1-2.559-.55-.34-1-1.63-1-2.868 0-1.237-.661-3.123-1.468-4.191-.808-1.067-1.483-3.152-1.5-4.632-.018-1.48-.482-2.969-1.032-3.309-.55-.34-1.014-1.829-1.032-3.309-.017-1.48-.692-3.565-1.5-4.632-.807-1.068-1.468-3.179-1.468-4.691 0-1.513-.45-3.028-1-3.368-.55-.34-1-2.111-1-3.937 0-1.825-.619-3.832-1.375-4.459-.756-.628-1.375-2.352-1.375-3.831s-.506-2.858-1.125-3.065c-.619-.206-1.125-1.661-1.125-3.232 0-1.572-.45-3.136-1-3.476-.55-.34-1-1.886-1-3.437 0-1.55-.675-3.378-1.5-4.063-.825-.685-1.5-2.765-1.5-4.622 0-1.858-.45-3.378-1-3.378s-1-1.575-1-3.5-.43-3.5-.955-3.5c-.525 0-1.224-1.687-1.554-3.75-.33-2.062-1.026-4.531-1.546-5.486-.52-.955-.945-2.841-.945-4.191 0-1.35-.45-2.733-1-3.073-.55-.34-1-1.886-1-3.437 0-1.55-.675-3.378-1.5-4.063-.825-.685-1.5-2.513-1.5-4.063 0-1.551-.45-3.097-1-3.437-.55-.34-1.014-1.829-1.032-3.309-.017-1.48-.692-3.565-1.5-4.632-.807-1.068-1.468-2.954-1.468-4.191 0-1.238-.45-2.528-1-2.868-.55-.34-1-1.957-1-3.594 0-1.637-.712-4.064-1.583-5.392-.871-1.329-1.31-3.275-.977-4.324.357-1.127-.018-2.425-.917-3.171-.838-.695-1.523-2.249-1.523-3.454 0-1.204-.911-4.074-2.023-6.377L748.953 686h-24.276c-17.549 0-24.61.333-25.477 1.2m117.044 77.05l.256 78.25 47.41.26c40.898.224 47.727.052 49.715-1.25 1.268-.831 3.783-1.543 5.59-1.583 1.807-.04 4.635-.934 6.285-1.985 1.65-1.052 3.9-2.327 5-2.833 1.1-.506 3.598-2.651 5.551-4.765 3.306-3.578 4.737-6.036 7.188-12.344.534-1.375 1.629-3.886 2.432-5.579 2.756-5.813.363-32.421-2.916-32.421-.415 0-.755-.812-.755-1.804 0-2.039-5.112-7.104-9.25-9.165-1.513-.753-2.75-1.743-2.75-2.2 0-.457-.475-.831-1.055-.831-1.272 0-9.945-3.882-9.945-4.451 0-.221 2.587-1.636 5.75-3.144 6.3-3.004 10.25-6.078 10.25-7.974 0-.672 1.117-2.281 2.483-3.576 1.365-1.295 2.49-3.143 2.5-4.105.009-.962.467-1.75 1.017-1.75.55 0 1-1.998 1-4.441 0-2.443.492-4.745 1.094-5.117.682-.421.855-2.233.461-4.809-.348-2.273-.882-6.25-1.187-8.838-.305-2.588-1.161-5.208-1.902-5.823-.741-.615-1.102-1.757-.803-2.537.3-.78-.177-1.695-1.059-2.034-.882-.338-1.604-1.206-1.604-1.927 0-2.07-10.003-12.474-11.993-12.474-.986 0-2.052-.675-2.369-1.5-.316-.825-1.463-1.5-2.548-1.5-1.084 0-2.25-.45-2.59-1-.34-.55-2.815-1-5.5-1s-5.16-.45-5.5-1c-.397-.643-16.679-1-45.565-1h-44.947l.256 78.25M1003 688.386c0 1.312-.672 3.674-1.494 5.25-.821 1.575-1.496 4.075-1.5 5.555-.003 1.48-.456 2.969-1.006 3.309-.55.34-1 1.915-1 3.5s-.45 3.16-1 3.5c-.55.34-1 1.886-1 3.437 0 1.55-.675 3.378-1.5 4.063-.825.685-1.5 2.513-1.5 4.063 0 1.551-.45 3.097-1 3.437-.55.34-1.014 1.829-1.032 3.309-.017 1.48-.692 3.565-1.5 4.632-.807 1.068-1.468 3.43-1.468 5.25 0 1.82-.45 3.309-1 3.309s-1 1.538-1 3.417c0 1.879-.531 3.593-1.18 3.81-.648.216-1.282 1.877-1.407 3.691-.126 1.814-.72 3.789-1.321 4.39-.601.601-1.092 2.55-1.092 4.333 0 1.783-.45 3.519-1 3.859-.55.34-1 1.63-1 2.868 0 1.237-.661 3.123-1.468 4.191-.808 1.067-1.483 3.403-1.5 5.191-.018 1.788-.482 3.25-1.032 3.25s-1 1.527-1 3.393c0 2.094-.574 3.613-1.5 3.969-.935.358-1.5 1.884-1.5 4.048 0 1.909-.45 3.75-1 4.09-.55.34-1 2.111-1 3.937 0 1.825-.695 3.895-1.546 4.601-.85.705-1.335 1.829-1.079 2.498.257.668-.173 2.448-.954 3.954-.782 1.506-1.421 3.786-1.421 5.065 0 1.28-.45 2.605-1 2.945-.55.34-1.014 1.829-1.032 3.309-.017 1.48-.692 3.565-1.5 4.632-.807 1.068-1.468 2.954-1.468 4.191 0 1.238-.45 2.528-1 2.868-.55.34-1 2.626-1 5.081v4.463l18.734-.272 18.734-.272.617-3.801c.339-2.09 1.134-4.318 1.766-4.95.632-.632 1.149-2.382 1.149-3.89s.45-3.019 1-3.359c.55-.34 1-2.129 1-3.976 0-1.846.454-3.509 1.01-3.694.555-.185 1.216-1.409 1.469-2.719.252-1.31.585-2.433.74-2.496.154-.063 9.844.023 21.531.191l21.25.306v2.822c0 1.551.675 3.381 1.5 4.066s1.5 2.54 1.5 4.122c0 1.583.45 2.878 1 2.878s1 1.527 1 3.393c0 2.022.579 3.615 1.432 3.943.788.302 1.576 2.038 1.75 3.857l.318 3.307 24.75.267c22.901.248 27.161-.159 23.75-2.267-.55-.34-1-1.886-1-3.437 0-1.55-.675-3.378-1.5-4.063-.825-.685-1.5-2.513-1.5-4.063 0-1.551-.45-3.097-1-3.437-.55-.34-1-1.665-1-2.945 0-1.279-.652-3.583-1.449-5.119-.797-1.536-1.221-3.162-.942-3.613.279-.451-.194-1.82-1.051-3.044-.857-1.223-1.558-3.447-1.558-4.942 0-1.496-.45-2.997-1-3.337-.55-.34-1-1.886-1-3.437 0-1.55-.675-3.378-1.5-4.063-.825-.685-1.5-2.765-1.5-4.622 0-1.858-.45-3.378-1-3.378s-1-1.382-1-3.071c0-1.69-.675-3.747-1.5-4.572-.825-.825-1.5-2.791-1.5-4.369 0-1.579-.45-3.148-1-3.488-.55-.34-1-1.915-1-3.5s-.45-3.16-1-3.5c-.55-.34-1-1.855-1-3.368 0-1.512-.661-3.623-1.468-4.691-.808-1.067-1.483-3.152-1.5-4.632-.018-1.48-.482-2.969-1.032-3.309-.55-.34-1-1.886-1-3.437 0-1.55-.675-3.378-1.5-4.063-.825-.685-1.5-2.513-1.5-4.063 0-1.551-.4-3.066-.89-3.369-.489-.302-1.107-2.016-1.374-3.809-.488-3.275-2.258-8.763-3.87-11.995-.476-.955-.866-2.841-.866-4.191 0-1.35-.45-2.733-1-3.073-.55-.34-1-2.181-1-4.09 0-2.164-.565-3.69-1.5-4.048-.926-.356-1.5-1.875-1.5-3.969 0-1.866-.45-3.393-1-3.393s-1-1.485-1-3.3c0-1.815-.54-3.84-1.2-4.5-.87-.87-8.156-1.2-26.5-1.2H1003v2.386M860 732.5V746h30.626l2.505-2.75c7.239-7.947 7.649-13.692 1.41-19.763-4.109-3.999-6.34-4.487-20.506-4.487H860v13.5m-141 3.441c0 1.068-.45 2.219-1 2.559-.55.34-1 1.855-1 3.368 0 1.512-.661 3.623-1.468 4.691-.808 1.067-1.483 3.377-1.5 5.132-.018 1.755-.482 3.469-1.032 3.809-.55.34-1.014 2.054-1.032 3.809-.017 1.755-.692 4.065-1.5 5.132-.807 1.068-1.468 3.115-1.468 4.55 0 1.435-.485 3.094-1.078 3.687-.593.593-.931 2.371-.75 3.95l.328 2.872h24.961l-.306-4.5c-.169-2.475-.947-5.497-1.731-6.715-.783-1.218-1.424-3.554-1.424-5.191s-.45-3.254-1-3.594c-.55-.34-1-2.111-1-3.937 0-1.825-.675-3.878-1.5-4.563-.825-.685-1.5-2.738-1.5-4.563 0-1.826-.45-3.597-1-3.937-.55-.34-1-2.391-1-4.559 0-2.836-.42-3.941-1.5-3.941-.825 0-1.5.873-1.5 1.941m-514.25.151c-1.194.688-1.75 2.243-1.75 4.899 0 2.14-.45 4.169-1 4.509-.55.34-1 1.974-1 3.63 0 1.657-.675 3.688-1.5 4.513-.825.825-1.5 3.016-1.5 4.869 0 1.854-.45 3.648-1 3.988-.55.34-1 2.076-1 3.859s-.481 3.722-1.068 4.309c-.588.588-.925 2.815-.75 4.95l.318 3.882h23l.318-3.882c.175-2.135-.162-4.362-.75-4.95-.587-.587-1.082-2.441-1.1-4.118-.017-1.678-.692-3.924-1.5-4.991-.807-1.068-1.468-3.43-1.468-5.25 0-1.82-.45-3.309-1-3.309s-1.014-1.687-1.032-3.75c-.017-2.062-.694-4.626-1.504-5.698-.811-1.071-1.244-2.669-.964-3.552.81-2.553-1.65-5.117-3.75-3.908m818.45.108c-.66.66-1.2 2.855-1.2 4.878 0 2.049-.664 4.228-1.5 4.922-.825.685-1.5 2.513-1.5 4.063 0 1.551-.45 3.097-1 3.437-.55.34-1 2.365-1 4.5s-.45 4.16-1 4.5c-.55.34-1 1.855-1 3.368 0 1.512-.661 3.623-1.468 4.691-1.616 2.137-1.957 6.222-.686 8.225.604.952 3.771 1.211 12.234 1l11.42-.284.3-4.086c.202-2.763-.203-4.504-1.25-5.373-.853-.707-1.55-2.779-1.55-4.604 0-1.826-.45-3.597-1-3.937-.55-.34-1-2.111-1-3.937 0-1.825-.695-3.895-1.544-4.6-1.009-.837-1.346-2.187-.972-3.892.347-1.577-.019-3.394-.923-4.59-.824-1.09-1.512-3.668-1.529-5.731-.033-3.873-1.519-4.863-3.832-2.55M860 794.5V809h14.441c8.549 0 14.693-.408 15.059-1 .34-.55 1.638-1 2.885-1 4.069 0 8.615-6.859 8.615-13 0-5.489-4.038-12-7.441-12-.793 0-1.719-.45-2.059-1-.369-.597-6.844-1-16.059-1H860v14.5m-471.342 92.175c-.362.362-.658 2.159-.658 3.994v3.335l223.75-.252 223.75-.252.33-2.891c.187-1.642-.245-3.258-1-3.738-1.547-.983-445.19-1.178-446.172-.196M835 958c-.825.533-3.075.991-5 1.016-1.925.026-4.374.708-5.441 1.516-1.068.807-2.686 1.468-3.595 1.468-.91 0-2.469.9-3.464 2-.995 1.1-2.303 2.015-2.905 2.033-1.29.039-5.595 3.481-5.595 4.473 0 .377-1.013 2.102-2.25 3.833-1.237 1.732-2.806 4.726-3.485 6.655-1.415 4.016-1.686 17.18-.408 19.77 4.628 9.375 7.458 12.772 13.423 16.117 2.08 1.165 4.837 2.119 6.128 2.119 1.291 0 2.907.675 3.592 1.5s2.738 1.5 4.563 1.5c1.826 0 3.597.45 3.937 1 .34.55 2.561 1 4.937 1 2.618 0 4.808.59 5.563 1.5.685.825 2.781 1.5 4.658 1.5 1.877 0 4.552.747 5.945 1.66 2.02 1.323 2.403 2.184 1.887 4.25-1.309 5.249-3.051 6.09-12.609 6.09h-8.809l-5.927-6.094c-5.195-5.343-6.178-5.959-7.97-5-1.124.602-4.563 1.094-7.641 1.094-3.079 0-7.214.675-9.188 1.5-1.975.825-4.66 1.5-5.968 1.5-1.965 0-2.378.511-2.378 2.941 0 1.618.45 3.219 1 3.559.55.34 1 1.271 1 2.069 0 2.278 8.151 12.028 11.75 14.055 1.788 1.007 3.25 2.178 3.25 2.603 0 .425.914.773 2.031.773 1.118 0 2.291.675 2.607 1.5.317.825 1.626 1.5 2.91 1.5 1.284 0 2.612.45 2.952 1 .371.601 7.157 1 17 1s16.629-.399 17-1c.34-.55 2.054-1.014 3.809-1.032 1.755-.017 4.065-.692 5.132-1.5 1.068-.807 2.764-1.468 3.77-1.468 3.934 0 14.789-9.186 14.789-12.516 0-.454.736-1.64 1.636-2.634 2.369-2.619 2.447-22.029.106-26.454-2.147-4.057-12.395-13.396-14.7-13.396-.988 0-2.357-.675-3.042-1.5-.685-.825-2.513-1.5-4.063-1.5-1.551 0-3.097-.45-3.437-1-.34-.55-2.365-1-4.5-1s-4.16-.45-4.5-1c-.34-.55-2.504-1.019-4.809-1.042-2.716-.027-5.944-1.045-9.172-2.892-7.15-4.092-7.717-5.437-3.823-9.077 2.81-2.628 3.916-2.989 9.169-2.989 5.75 0 6.174.183 11.304 4.866 4.607 4.206 5.774 4.802 8.593 4.385 1.794-.265 3.509-.88 3.809-1.366.301-.487 2.069-.885 3.929-.885 1.86 0 3.66-.45 4-1 .34-.55 1.535-1 2.655-1 1.12 0 3.456-.788 5.191-1.75 1.735-.962 3.289-1.81 3.453-1.882 1.692-.749-13.233-18.368-15.559-18.368-1.394 0-7.114-2.988-7.779-4.063-.319-.515-2.551-.937-4.961-.937s-4.66-.45-5-1c-.792-1.282-17.516-1.282-19.5 0m110-.036c-.825.553-3.132 1.012-5.128 1.021-1.995.008-4.187.69-4.872 1.515-.685.825-1.871 1.5-2.636 1.5-2.28 0-5.555 2.199-11.114 7.461-2.888 2.734-5.25 5.718-5.25 6.632 0 .914-.675 2.222-1.5 2.907-.854.709-1.5 2.889-1.5 5.063 0 2.101-.45 4.097-1 4.437-.55.34-1 1.915-1 3.5s.45 3.16 1 3.5c.55.34 1 1.994 1 3.675 0 6.305 13.292 19.825 19.492 19.825.695 0 1.823.675 2.508 1.5.709.854 2.889 1.5 5.063 1.5 2.101 0 4.097.45 4.437 1 .34.55 2.53 1 4.868 1 2.337 0 5.123.661 6.191 1.468 1.067.808 3.213 1.483 4.768 1.5 1.737.02 3.914 1.119 5.646 2.851l2.819 2.819-2.778 3.181c-2.694 3.085-3.021 3.181-10.896 3.181-4.745 0-8.118-.415-8.118-1 0-.55-.812-1-1.804-1-2.317 0-8.196-6.036-8.196-8.414 0-1.491-.497-1.69-2.75-1.107-1.513.392-6.125 1.016-10.25 1.387s-8.483 1.228-9.684 1.905c-1.202.676-3.564 1.229-5.25 1.229s-3.066.45-3.066 1 .45 1 1 1 1 1.295 1 2.878c0 1.582.675 3.437 1.5 4.122s1.5 1.863 1.5 2.619c0 1.927 12.29 14.381 14.192 14.381.86 0 2.123.675 2.808 1.5.685.825 2.288 1.5 3.563 1.5 1.276 0 2.597.45 2.937 1 .373.603 7.344 1 17.559 1 10.627 0 16.941-.373 16.941-1 0-.55 1.745-1 3.878-1 2.226 0 4.407-.639 5.122-1.5.685-.825 1.871-1.5 2.636-1.5 3.953 0 17.364-12.094 17.364-15.66 0-1.222.45-2.5 1-2.84 1.219-.754 1.34-17.839.143-20.264-4.329-8.769-8.791-14.236-11.618-14.236-.774 0-1.685-.45-2.025-1-.34-.55-1.443-1-2.452-1s-2.093-.675-2.41-1.5c-.324-.845-1.812-1.5-3.407-1.5-1.557 0-3.258-.406-3.781-.903-.522-.497-2.975-1.137-5.45-1.422-7.788-.898-15.292-2.567-16.366-3.641-.569-.569-1.614-1.034-2.323-1.034-2.35 0-5.311-3.405-5.311-6.107 0-3.785 3.702-5.893 10.351-5.893 2.981 0 6.484.575 7.785 1.279 5.141 2.78 6.864 4.276 6.864 5.962 0 1.415.869 1.759 4.441 1.759 2.443 0 4.719-.45 5.059-1 .34-.55 1.915-1 3.5-1s3.16-.45 3.5-1c.34-.55 1.829-1.002 3.309-1.004 2.852-.004 9.191-3.355 9.191-4.859 0-.491-.675-1.452-1.5-2.137s-1.5-1.784-1.5-2.442c0-1.824-6.7-9.256-9.777-10.844a548.335 548.335 0 01-7.414-3.95c-2.58-1.398-6.63-2.852-9-3.23-7.883-1.259-22.269-1.603-23.809-.57M240 1011v52h77v-23.962l-22.75-.269-22.75-.269-.29-8.228-.29-8.229 19.29-.271 19.29-.272.282-11.728.281-11.729-19.281-.271-19.282-.272v-14l22.75-.269 22.75-.269V959h-77v52m97-51.654c0 1.079 3.207 6.499 4.955 8.376 1.125 1.207 2.045 2.668 2.045 3.246 0 .579 1.575 3.293 3.5 6.032s3.5 5.239 3.5 5.556c0 .318 1.125 2.052 2.5 3.855s2.5 3.603 2.5 4c0 .397 1.125 2.197 2.5 4s2.5 3.798 2.5 4.433c0 .636.42 1.156.933 1.156.513 0 1.239 1.013 1.615 2.25.375 1.237 1.586 3.238 2.691 4.446l2.008 2.196-2.068 3.304c-1.138 1.817-2.82 4.766-3.738 6.554-.918 1.788-2.068 3.25-2.555 3.25-.487 0-.886.694-.886 1.543 0 .848-1.687 3.9-3.75 6.781-3.585 5.007-5.315 7.755-7.677 12.19-.59 1.108-2.012 3.358-3.16 5-1.148 1.642-2.372 3.773-2.719 4.736-.347.963-1.095 1.75-1.663 1.75-.567 0-1.031.83-1.031 1.845 0 1.015-.9 2.66-2 3.655-1.1.995-2 2.19-2 2.655 0 .465 6.717.845 14.927.845h14.927l1.573-3c2.295-4.376 4.355-7.98 7.147-12.5 1.359-2.2 2.983-5.013 3.609-6.25.626-1.237 1.516-2.25 1.978-2.25.461 0 .854-.787.872-1.75.019-.963.919-2.812 2-4.111l1.967-2.361 1.967 2.361c1.081 1.299 1.981 3.148 2 4.111.018.963.483 1.75 1.033 1.75.55 0 1 .52 1 1.156 0 .635 1.125 2.63 2.5 4.433s2.5 3.983 2.5 4.844c0 .862.45 1.567 1 1.567s1 .64 1 1.423 1.048 2.696 2.33 4.25c1.281 1.555 2.617 3.614 2.968 4.577.577 1.578 2.408 1.75 18.671 1.75 14.649 0 18.031-.258 18.031-1.378 0-.757-.675-1.937-1.5-2.622-.825-.685-1.5-1.757-1.5-2.383 0-.625-1.125-2.351-2.5-3.834-1.375-1.482-2.5-3.312-2.5-4.065 0-.753-1.125-2.426-2.5-3.718-1.375-1.292-2.5-3.17-2.5-4.174 0-1.004-.45-1.826-1-1.826s-1-.52-1-1.156c0-.635-1.125-2.63-2.5-4.433s-2.5-3.679-2.5-4.17c0-.491-1.125-1.949-2.5-3.241s-2.5-2.964-2.5-3.716c0-.752-.932-2.361-2.071-3.576-1.14-1.214-3.15-4.451-4.467-7.192-2.155-4.487-2.247-5.186-.918-7 .812-1.109 1.878-2.916 2.37-4.016.492-1.1 1.837-2.994 2.99-4.208 1.153-1.215 2.096-2.61 2.096-3.102 0-1.129 10.186-16.574 11.227-17.023.425-.184.773-1.118.773-2.076s1.125-2.799 2.5-4.091c1.375-1.292 2.5-2.964 2.5-3.716 0-.752.884-2.317 1.965-3.477 1.081-1.161 1.73-2.492 1.441-2.958-.288-.467-6.809-.849-14.49-.849-13.524 0-13.997.071-14.951 2.25-.543 1.237-2.117 4.05-3.498 6.25-1.382 2.2-3.024 5.013-3.65 6.25-.626 1.237-1.516 2.25-1.978 2.25-.461 0-.839.812-.839 1.804s-1.55 3.306-3.445 5.143l-3.445 3.339-.663-2.643c-.365-1.454-1.065-2.643-1.555-2.643-.491 0-.892-.705-.892-1.567 0-.861-1.125-3.041-2.5-4.844-1.375-1.803-2.5-3.798-2.5-4.433 0-.636-.45-1.156-1-1.156s-1-.873-1-1.941-.478-2.236-1.062-2.597c-.584-.361-1.472-1.738-1.975-3.059L374.05 959h-18.525c-10.189 0-18.525.156-18.525.346M463 1011v52h30.957l.271-19.25.272-19.25 15.477-.277c8.513-.153 15.915-.715 16.45-1.25.535-.535 1.953-.973 3.151-.973 1.197 0 2.737-.675 3.422-1.5s1.795-1.5 2.466-1.5c1.747 0 11.534-9.607 11.534-11.321 0-.789.675-1.994 1.5-2.679 1.163-.965 1.5-3.657 1.5-11.974 0-9.596-.272-11.245-2.578-15.627-3.118-5.926-10.163-13.399-12.63-13.399-.986 0-1.792-.45-1.792-1s-1.039-1-2.309-1c-1.27 0-3.182-.661-4.25-1.468-1.607-1.216-7.237-1.474-32.691-1.5L463 959v52m116 0v52h30.957l.271-19.25.272-19.25 4.137-.302c3.489-.255 4.467.119 6.25 2.385 1.162 1.478 2.113 3.724 2.113 4.993 0 1.268.45 2.584 1 2.924.55.34 1 1.941 1 3.559s.45 2.941 1 2.941 1 .814 1 1.809.661 2.682 1.468 3.75c.808 1.067 1.483 2.927 1.5 4.132.018 1.205.482 2.469 1.032 2.809.55.34 1 1.507 1 2.594s.727 3.086 1.615 4.441c1.614 2.463 1.626 2.465 19 2.465 9.562 0 17.385-.231 17.385-.514 0-.282-.45-1.407-1-2.5l-2-3.972c-.55-1.093-1-2.838-1-3.878s-.695-2.468-1.546-3.174c-.85-.705-1.326-1.852-1.059-2.549.267-.697-.162-1.805-.954-2.462-.793-.658-1.441-2.239-1.441-3.514 0-1.276-.45-2.597-1-2.937-.55-.34-1-1.436-1-2.437 0-1-.675-2.378-1.5-3.063s-1.5-2.288-1.5-3.563c0-1.276-.45-2.597-1-2.937-.55-.34-1-1.668-1-2.952s-.704-2.604-1.563-2.934c-1.994-.765-.906-2.614 1.539-2.614 1.021 0 2.007-.357 2.191-.793.183-.436 2.021-1.822 4.083-3.081 2.063-1.259 3.76-2.815 3.772-3.458.012-.642.902-2.293 1.978-3.668s1.966-3.54 1.978-4.812c.012-1.272.753-4.547 1.647-7.279 1.499-4.585 1.499-5.295 0-9.222-.894-2.339-1.625-5.251-1.625-6.47 0-1.22-.399-2.217-.886-2.217s-1.633-1.574-2.546-3.498c-.913-1.924-3.102-4.237-4.864-5.14-1.762-.902-3.429-1.916-3.704-2.253-.275-.337-1.85-1.216-3.5-1.953a189.437 189.437 0 01-5.831-2.749c-2.259-1.122-9.388-1.407-35.25-1.407H579v52m123.463-50.762c-.266.694-.366 23.987-.223 51.762l.26 50.5h77v-23l-22.725-.269c-26.268-.31-25.083.196-24.572-10.503l.297-6.228 19-.5 19-.5v-23l-19-.5-19-.5v-14l23.5-.5 23.5-.5v-23l-38.277-.262c-30.085-.206-38.38.008-38.76 1M610 990.5v9.5h10.813c10.542 0 10.88-.07 13.5-2.805 1.975-2.061 2.687-3.835 2.687-6.695 0-2.86-.712-4.634-2.687-6.695-2.62-2.735-2.958-2.805-13.5-2.805H610v9.5m-115.786 2.25l.286 9.75 8.853.29c8.824.29 8.863.28 11.935-2.934 3.944-4.127 3.945-9.49.003-13.914-2.549-2.86-2.882-2.942-11.993-2.942h-9.37l.286 9.75" fill="undefined" fill-rule="evenodd"/></svg>